<?xml version="1.0" encoding="utf-8"?>
<svg fill-rule="evenodd" viewBox="0 0 180 72" xmlns="http://www.w3.org/2000/svg">
  <rect style="fill: rgb(34, 34, 34);" width="180" height="72" rx="8" ry="8"/>
  <g transform="matrix(0.875001, 0, 0, 0.875001, 2.499824, -7.750049)">
    <path d="M 54.718 49.949 C 54.718 52.963 52.274 55.407 49.26 55.407 C 46.245 55.407 43.801 52.963 43.801 49.949 C 43.801 46.934 46.245 44.49 49.26 44.49 C 52.274 44.49 54.718 46.934 54.718 49.949 Z" fill="#00d8ff"/>
    <g transform="matrix(0.108808, 0, 0, 0.108808, 19.932716, 24.092865)" fill="none">
      <path d="M 269.53 135.628 C 336.886 135.628 399.458 145.293 446.637 161.535 C 503.481 181.105 538.431 210.768 538.431 237.628 C 538.431 265.618 501.391 297.131 440.348 317.356 C 394.198 332.646 333.468 340.628 269.53 340.628 C 203.976 340.628 141.9 333.136 95.23 317.188 C 36.184 297.006 0.62 265.085 0.62 237.628 C 0.62 210.986 33.99 181.552 90.035 162.012 C 137.39 145.502 201.507 135.628 269.521 135.628 L 269.53 135.628 Z" stroke="#00d8ff" stroke-width="24"/>
      <path d="M 180.736 186.922 C 214.386 128.574 254.016 79.198 291.656 46.442 C 337.006 6.976 380.163 -8.48 403.43 4.937 C 427.678 18.92 436.472 66.751 423.497 129.733 C 413.697 177.351 390.263 233.945 358.321 289.333 C 325.571 346.121 288.071 396.153 250.944 428.605 C 203.964 469.673 158.544 484.535 134.759 470.818 C 111.679 457.518 102.853 413.898 113.925 355.585 C 123.28 306.315 146.757 245.84 180.725 186.921 L 180.736 186.922 Z" stroke="#00d8ff" stroke-width="24"/>
      <path d="M 180.82 289.482 C 147.075 231.2 124.1 172.195 114.51 123.227 C 102.966 64.227 111.128 19.117 134.374 5.661 C 158.598 -8.363 204.429 7.905 252.514 50.601 C 288.87 82.881 326.202 131.438 358.237 186.774 C 391.081 243.507 415.697 300.984 425.273 349.356 C 437.39 410.569 427.583 457.34 403.82 471.096 C 380.763 484.444 338.57 470.312 293.58 431.596 C 255.567 398.886 214.898 348.343 180.82 289.481 L 180.82 289.482 Z" stroke="#00d8ff" stroke-width="24"/>
    </g>
    <path d="M 109.852 63.895 L 103.161 53.787 C 106.542 53.488 109.59 51.039 109.59 46.562 C 109.59 42.007 106.357 39.093 101.822 39.093 L 91.865 39.093 L 91.865 63.876 L 94.95 63.876 L 94.95 54.029 L 99.893 54.029 L 106.209 63.876 L 109.852 63.895 Z M 101.454 51.335 L 94.951 51.335 L 94.951 41.86 L 101.454 41.86 C 104.39 41.86 106.397 43.791 106.397 46.579 C 106.397 49.367 104.39 51.338 101.454 51.338 L 101.454 51.335 Z M 121.334 64.339 C 124.27 64.339 126.685 63.374 128.469 61.591 L 127.131 59.769 C 125.718 61.218 123.638 62.035 121.595 62.035 C 117.731 62.035 115.351 59.211 115.128 55.831 L 129.656 55.831 L 129.656 55.125 C 129.656 49.738 126.461 45.501 121.034 45.501 C 115.906 45.501 112.191 49.7 112.191 54.902 C 112.191 60.513 116.019 64.325 121.333 64.325 L 121.334 64.339 Z M 126.91 53.785 L 115.13 53.785 C 115.279 51.037 117.172 47.801 121.001 47.801 C 125.089 47.801 126.871 51.109 126.91 53.785 Z M 148.166 63.893 L 148.166 51.557 C 148.166 47.209 145.008 45.499 141.217 45.499 C 138.28 45.499 135.978 46.464 134.046 48.471 L 135.346 50.404 C 136.943 48.694 138.692 47.914 140.846 47.914 C 143.447 47.914 145.381 49.288 145.381 51.704 L 145.381 54.936 C 143.931 53.263 141.888 52.483 139.435 52.483 C 136.388 52.483 133.152 54.379 133.152 58.391 C 133.152 62.293 136.384 64.337 139.435 64.337 C 141.85 64.337 143.895 63.483 145.381 61.848 L 145.381 63.89 L 148.166 63.893 Z M 140.438 62.332 C 137.838 62.332 136.015 60.699 136.015 58.431 C 136.015 56.127 137.838 54.492 140.438 54.492 C 142.407 54.492 144.302 55.235 145.381 56.722 L 145.381 60.103 C 144.303 61.589 142.407 62.334 140.438 62.334 L 140.438 62.332 Z M 161.641 64.339 C 164.911 64.339 166.842 63.001 168.218 61.218 L 166.36 59.51 C 165.171 61.107 163.648 61.85 161.806 61.85 C 157.978 61.85 155.602 58.877 155.602 54.902 C 155.602 50.927 157.98 47.991 161.806 47.991 C 163.663 47.991 165.187 48.698 166.36 50.331 L 168.218 48.622 C 166.844 46.838 164.911 45.502 161.641 45.502 C 156.29 45.502 152.686 49.59 152.686 54.903 C 152.686 60.255 156.29 64.327 161.641 64.327 L 161.641 64.339 Z M 176.655 64.339 C 178.288 64.339 179.294 63.855 180 63.188 L 179.184 61.107 C 178.812 61.515 178.085 61.85 177.288 61.85 C 176.063 61.85 175.466 60.884 175.466 59.546 L 175.466 48.398 L 179.111 48.398 L 179.111 45.946 L 175.466 45.946 L 175.466 41.041 L 172.679 41.041 L 172.679 45.946 L 169.705 45.946 L 169.705 48.399 L 172.679 48.399 L 172.679 60.143 C 172.679 62.819 174.017 64.343 176.655 64.343 L 176.655 64.339 Z" fill="#00d8ff"/>
  </g>
</svg>
